<?xml version="1.0" encoding="UTF-8"?>
<svg id="Capa_2" data-name="Capa 2" xmlns="http://www.w3.org/2000/svg" viewBox="0 0 5000 712.15">
  <defs>
    <style>
      .cls-1, .cls-2 {
        fill: #27346e;
      }

      .cls-1, .cls-2, .cls-3 {
        stroke-width: 0px;
      }

      .cls-2 {
        fill-rule: evenodd;
      }

      .cls-3 {
        fill: #848ca8;
      }
    </style>
  </defs>
  <g id="Capa_1-2" data-name="Capa 1">
    <g>
      <g>
        <path class="cls-2" d="m707.67,0C316.83,0,0,159.42,0,356.08s316.83,356.07,707.67,356.07,707.66-159.42,707.66-356.07S1098.5,0,707.67,0m-.81,690.34c-322.91,0-584.69-150.32-584.69-335.74S383.94,18.85,706.85,18.85s584.69,150.32,584.69,335.75-261.77,335.74-584.69,335.74"/>
        <path class="cls-2" d="m262.42,419.12h130.57l60.62-184.85,22.79-78.1,106.12,129.79,117.75-128.69,7.49,32.21,52.32,142.42v-152.77c0-4.08,3.31-7.39,7.39-7.39h196.91l53.04,81.52h-171.37c-4.08,0-7.39,3.31-7.39,7.39v12.72c0,4.08,3.31,7.39,7.39,7.39h98.17c4.08,0,7.39,3.31,7.39,7.39v43.66c0,4.08-3.31,7.39-7.39,7.39h-98.17c-4.08,0-7.39,3.31-7.39,7.39v16.1c0,4.1,3.33,7.41,7.43,7.39l176.25-.92-28.02,46.15h158.59c4.08,0,7.39,3.31,7.39,7.39v30.42c0,4.08-3.31,7.39-7.39,7.39h-422.79c-4.08,0-7.39-3.31-7.39-7.39v-7.46l-55.5-151.05-40.99,44.8-45.57,50.28-71.24-87.14-40.18,122.53v31.84c0,4.08-3.31,7.39-7.39,7.39h-199.43c-4.08,0-7.39-3.31-7.39-7.39v-30.42c0-4.08,3.31-7.39,7.39-7.39"/>
      </g>
      <g>
        <path class="cls-1" d="m1733.51,104.77h95.62l119.52,359.62,120.61-359.62h95.56l86.49,515.59h-94.9l-55.29-325.62-109.53,325.62h-86.49l-108.56-325.62-56.61,325.62h-95.69l89.27-515.59Z"/>
        <path class="cls-1" d="m2693.04,457.37h-307.39c4.44,27.11,16.3,48.67,35.58,64.67,19.28,16.01,43.87,24.01,73.78,24.01,35.75,0,66.47-12.5,92.18-37.5l80.62,37.85c-20.1,28.51-44.16,49.6-72.2,63.27-28.04,13.67-61.34,20.5-99.89,20.5-59.82,0-108.54-18.87-146.16-56.61-37.62-37.73-56.43-85-56.43-141.78s18.75-106.49,56.26-144.93c37.5-38.43,84.53-57.66,141.08-57.66,60.05,0,108.89,19.22,146.51,57.66,37.62,38.44,56.43,89.2,56.43,152.29l-.35,18.23Zm-95.69-75.36c-6.32-21.26-18.78-38.56-37.39-51.87-18.61-13.32-40.2-19.98-64.78-19.98-26.68,0-50.09,7.48-70.22,22.43-12.64,9.35-24.34,25.82-35.11,49.42h207.5Z"/>
        <path class="cls-1" d="m2748,239.01h82.02v48.02c8.88-18.93,20.68-33.3,35.4-43.11,14.72-9.81,30.84-14.72,48.37-14.72,12.38,0,25.35,3.28,38.91,9.81l-29.79,82.37c-11.22-5.61-20.45-8.41-27.69-8.41-14.72,0-27.16,9.11-37.33,27.34-10.16,18.23-15.25,53.98-15.25,107.25l.35,18.58v154.22h-94.99V239.01Z"/>
        <path class="cls-1" d="m3036.91,81.98c16.77,0,31.16,6.08,43.16,18.23,12,12.15,18,26.87,18,44.16s-5.94,31.61-17.83,43.64c-11.88,12.04-26.1,18.05-42.64,18.05s-31.52-6.13-43.52-18.4c-12-12.27-18-27.16-18-44.69s5.94-31.19,17.82-43.11c11.88-11.92,26.21-17.88,42.99-17.88Zm-47.84,157.03h95.69v381.35h-95.69V239.01Z"/>
        <path class="cls-1" d="m3174.08,385.87h178.06v89.03h-178.06v-89.03Z"/>
        <path class="cls-3" d="m3387.86,104.77h284.96v96.74h-93.93v418.85h-99.54V201.51h-91.48v-96.74Z"/>
        <path class="cls-3" d="m3868.37,229.19c35.98,0,69.8,9,101.47,26.99,31.66,18,56.37,42.41,74.13,73.25,17.76,30.84,26.64,64.14,26.64,99.89s-8.94,69.63-26.81,100.94c-17.88,31.32-42.24,55.79-73.08,73.43-30.84,17.64-64.84,26.46-102,26.46-54.68,0-101.35-19.45-140.03-58.36-38.68-38.91-58.01-86.16-58.01-141.78,0-59.59,21.85-109.24,65.54-148.96,38.32-34.58,82.37-51.87,132.14-51.87Zm1.58,90.08c-29.73,0-54.48,10.34-74.26,31.02-19.78,20.68-29.67,47.14-29.67,79.39s9.77,60.06,29.32,80.62c19.54,20.56,44.29,30.84,74.26,30.84s54.89-10.39,74.78-31.19c19.89-20.8,29.84-47.55,29.84-80.27s-9.78-59.29-29.32-79.74c-19.55-20.44-44.53-30.67-74.96-30.67Z"/>
        <path class="cls-3" d="m4314.67,229.19c35.98,0,69.8,9,101.47,26.99,31.66,18,56.37,42.41,74.13,73.25,17.76,30.84,26.64,64.14,26.64,99.89s-8.94,69.63-26.81,100.94c-17.88,31.32-42.24,55.79-73.08,73.43-30.84,17.64-64.84,26.46-102,26.46-54.68,0-101.35-19.45-140.03-58.36-38.68-38.91-58.01-86.16-58.01-141.78,0-59.59,21.85-109.24,65.54-148.96,38.32-34.58,82.37-51.87,132.14-51.87Zm1.58,90.08c-29.73,0-54.48,10.34-74.26,31.02-19.78,20.68-29.67,47.14-29.67,79.39s9.77,60.06,29.32,80.62c19.54,20.56,44.29,30.84,74.26,30.84s54.89-10.39,74.78-31.19c19.89-20.8,29.84-47.55,29.84-80.27s-9.78-59.29-29.32-79.74c-19.55-20.44-44.53-30.67-74.96-30.67Z"/>
        <path class="cls-3" d="m4579.89,91.8h95.69v528.56h-95.69V91.8Z"/>
        <path class="cls-3" d="m4992.99,292.29l-59.23,59.23c-24.07-23.83-45.92-35.75-65.54-35.75-10.75,0-19.16,2.28-25.24,6.83-6.08,4.56-9.11,10.22-9.11,17,0,5.14,1.93,9.87,5.78,14.2,3.86,4.33,13.37,10.22,28.57,17.7l35.05,17.53c36.92,18.23,62.27,36.8,76.06,55.73,13.79,18.93,20.68,41.13,20.68,66.6,0,33.88-12.44,62.16-37.33,84.82-24.89,22.67-58.24,34-100.07,34-55.61,0-100.01-21.73-133.19-65.19l58.88-64.14c11.22,13.09,24.36,23.66,39.43,31.72,15.07,8.06,28.45,12.09,40.13,12.09,12.62,0,22.78-3.03,30.49-9.11,7.71-6.07,11.57-13.08,11.57-21.03,0-14.72-13.9-29.09-41.71-43.11l-32.25-16.12c-61.69-31.07-92.53-69.98-92.53-116.72,0-30.14,11.62-55.91,34.87-77.29,23.25-21.38,52.98-32.07,89.2-32.07,24.77,0,48.07,5.43,69.93,16.3,21.85,10.87,40.36,26.46,55.55,46.79Z"/>
      </g>
    </g>
  </g>
</svg>