<?xml version="1.0" encoding="utf-8"?>
<!-- Generator: Adobe Illustrator 28.0.0, SVG Export Plug-In . SVG Version: 6.00 Build 0)  -->
<svg version="1.1" id="Capa_2_00000136390944863178423910000001878277363146510010_"
	 xmlns="http://www.w3.org/2000/svg" xmlns:xlink="http://www.w3.org/1999/xlink" x="0px" y="0px" viewBox="0 0 5000 712.2"
	 style="enable-background:new 0 0 5000 712.2;" xml:space="preserve">
<style type="text/css">
	.st0{display:none;}
	.st1{display:inline;}
	.st2{fill-rule:evenodd;clip-rule:evenodd;fill:#27346E;}
	.st3{fill:#27346E;}
	.st4{fill:#848CA8;}
	.st5{fill-rule:evenodd;clip-rule:evenodd;fill:#FFFFFF;}
	.st6{fill:#FFFFFF;}
</style>
<g id="Capa_1-2" class="st0">
	<g class="st1">
		<g>
			<path class="st2" d="M707.7,0C316.8,0,0,159.4,0,356.1s316.8,356.1,707.7,356.1s707.7-159.4,707.7-356.1S1098.5,0,707.7,0
				 M706.9,690.3c-322.9,0-584.7-150.3-584.7-335.7S383.9,18.9,706.8,18.9s584.7,150.3,584.7,335.8S1029.8,690.3,706.9,690.3"/>
			<path class="st2" d="M262.4,419.1H393l60.6-184.9l22.8-78.1L582.5,286l117.8-128.7l7.5,32.2l52.3,142.4V179.1
				c0-4.1,3.3-7.4,7.4-7.4h196.9l53,81.5H846c-4.1,0-7.4,3.3-7.4,7.4v12.7c0,4.1,3.3,7.4,7.4,7.4h98.2c4.1,0,7.4,3.3,7.4,7.4v43.7
				c0,4.1-3.3,7.4-7.4,7.4H846c-4.1,0-7.4,3.3-7.4,7.4v16.1c0,4.1,3.3,7.4,7.4,7.4l176.2-0.9l-28,46.1h158.6c4.1,0,7.4,3.3,7.4,7.4
				v30.4c0,4.1-3.3,7.4-7.4,7.4H730.1c-4.1,0-7.4-3.3-7.4-7.4v-7.5l-55.5-151.1l-41,44.8l-45.6,50.3l-71.2-87.1l-40.2,122.5v31.8
				c0,4.1-3.3,7.4-7.4,7.4H262.4c-4.1,0-7.4-3.3-7.4-7.4v-30.4C255,422.4,258.3,419.1,262.4,419.1"/>
		</g>
		<g>
			<path class="st3" d="M1733.5,104.8h95.6l119.5,359.6l120.6-359.6h95.6l86.5,515.6h-94.9l-55.3-325.6l-109.5,325.6h-86.5
				l-108.6-325.6l-56.6,325.6h-95.7L1733.5,104.8L1733.5,104.8z"/>
			<path class="st3" d="M2693,457.4h-307.4c4.4,27.1,16.3,48.7,35.6,64.7c19.3,16,43.9,24,73.8,24c35.8,0,66.5-12.5,92.2-37.5
				l80.6,37.8c-20.1,28.5-44.2,49.6-72.2,63.3c-28,13.7-61.3,20.5-99.9,20.5c-59.8,0-108.5-18.9-146.2-56.6
				c-37.6-37.7-56.4-85-56.4-141.8s18.8-106.5,56.3-144.9c37.5-38.4,84.5-57.7,141.1-57.7c60.1,0,108.9,19.2,146.5,57.7
				s56.4,89.2,56.4,152.3L2693,457.4L2693,457.4z M2597.4,382c-6.3-21.3-18.8-38.6-37.4-51.9c-18.6-13.3-40.2-20-64.8-20
				c-26.7,0-50.1,7.5-70.2,22.4c-12.6,9.4-24.3,25.8-35.1,49.4H2597.4z"/>
			<path class="st3" d="M2748,239h82v48c8.9-18.9,20.7-33.3,35.4-43.1s30.8-14.7,48.4-14.7c12.4,0,25.4,3.3,38.9,9.8l-29.8,82.4
				c-11.2-5.6-20.4-8.4-27.7-8.4c-14.7,0-27.2,9.1-37.3,27.3c-10.2,18.2-15.2,54-15.2,107.2l0.4,18.6v154.2h-95V239z"/>
			<path class="st3" d="M3036.9,82c16.8,0,31.2,6.1,43.2,18.2s18,26.9,18,44.2s-5.9,31.6-17.8,43.6c-11.9,12-26.1,18.1-42.6,18.1
				s-31.5-6.1-43.5-18.4c-12-12.3-18-27.2-18-44.7s5.9-31.2,17.8-43.1C3005.8,87.9,3020.1,82,3036.9,82L3036.9,82z M2989.1,239h95.7
				v381.3h-95.7V239L2989.1,239z"/>
			<path class="st3" d="M3174.1,385.9h178.1v89h-178.1V385.9z"/>
			<path class="st4" d="M3387.9,104.8h285v96.7h-93.9v418.8h-99.5V201.5h-91.5L3387.9,104.8L3387.9,104.8z"/>
			<path class="st4" d="M3868.4,229.2c36,0,69.8,9,101.5,27c31.7,18,56.4,42.4,74.1,73.2c17.8,30.8,26.6,64.1,26.6,99.9
				s-8.9,69.6-26.8,100.9c-17.9,31.3-42.2,55.8-73.1,73.4s-64.8,26.5-102,26.5c-54.7,0-101.4-19.5-140-58.4s-58-86.2-58-141.8
				c0-59.6,21.9-109.2,65.5-149C3774.5,246.5,3818.6,229.2,3868.4,229.2L3868.4,229.2z M3870,319.3c-29.7,0-54.5,10.3-74.3,31
				s-29.7,47.1-29.7,79.4s9.8,60.1,29.3,80.6c19.5,20.6,44.3,30.8,74.3,30.8s54.9-10.4,74.8-31.2c19.9-20.8,29.8-47.5,29.8-80.3
				s-9.8-59.3-29.3-79.7C3925.4,329.5,3900.4,319.3,3870,319.3L3870,319.3z"/>
			<path class="st4" d="M4314.7,229.2c36,0,69.8,9,101.5,27c31.7,18,56.4,42.4,74.1,73.2s26.6,64.1,26.6,99.9s-8.9,69.6-26.8,100.9
				c-17.9,31.3-42.2,55.8-73.1,73.4s-64.8,26.5-102,26.5c-54.7,0-101.4-19.5-140-58.4c-38.7-38.9-58-86.2-58-141.8
				c0-59.6,21.9-109.2,65.5-149C4220.8,246.5,4264.9,229.2,4314.7,229.2L4314.7,229.2z M4316.2,319.3c-29.7,0-54.5,10.3-74.3,31
				s-29.7,47.1-29.7,79.4s9.8,60.1,29.3,80.6c19.5,20.6,44.3,30.8,74.3,30.8s54.9-10.4,74.8-31.2c19.9-20.8,29.8-47.5,29.8-80.3
				s-9.8-59.3-29.3-79.7C4371.6,329.5,4346.7,319.3,4316.2,319.3L4316.2,319.3z"/>
			<path class="st4" d="M4579.9,91.8h95.7v528.6h-95.7V91.8z"/>
			<path class="st4" d="M4993,292.3l-59.2,59.2c-24.1-23.8-45.9-35.8-65.5-35.8c-10.8,0-19.2,2.3-25.2,6.8c-6.1,4.6-9.1,10.2-9.1,17
				c0,5.1,1.9,9.9,5.8,14.2c3.9,4.3,13.4,10.2,28.6,17.7l35,17.5c36.9,18.2,62.3,36.8,76.1,55.7c13.8,18.9,20.7,41.1,20.7,66.6
				c0,33.9-12.4,62.2-37.3,84.8c-24.9,22.7-58.2,34-100.1,34c-55.6,0-100-21.7-133.2-65.2l58.9-64.1c11.2,13.1,24.4,23.7,39.4,31.7
				c15.1,8.1,28.5,12.1,40.1,12.1c12.6,0,22.8-3,30.5-9.1c7.7-6.1,11.6-13.1,11.6-21c0-14.7-13.9-29.1-41.7-43.1l-32.2-16.1
				c-61.7-31.1-92.5-70-92.5-116.7c0-30.1,11.6-55.9,34.9-77.3s53-32.1,89.2-32.1c24.8,0,48.1,5.4,69.9,16.3
				C4959.3,256.4,4977.8,272,4993,292.3L4993,292.3z"/>
		</g>
	</g>
</g>
<g id="Capa_1-2_00000050622395631283804420000015230650559805660089_">
	<g>
		<g>
			<path class="st5" d="M707.7,0C316.8,0,0,159.4,0,356.1s316.8,356.1,707.7,356.1s707.7-159.4,707.7-356.1S1098.5,0,707.7,0
				 M706.9,690.3c-322.9,0-584.7-150.3-584.7-335.7S383.9,18.9,706.8,18.9s584.7,150.3,584.7,335.8S1029.8,690.3,706.9,690.3"/>
			<path class="st5" d="M262.4,419.1H393l60.6-184.9l22.8-78.1L582.5,286l117.8-128.7l7.5,32.2l52.3,142.4V179.1
				c0-4.1,3.3-7.4,7.4-7.4h196.9l53,81.5H846c-4.1,0-7.4,3.3-7.4,7.4v12.7c0,4.1,3.3,7.4,7.4,7.4h98.2c4.1,0,7.4,3.3,7.4,7.4v43.7
				c0,4.1-3.3,7.4-7.4,7.4H846c-4.1,0-7.4,3.3-7.4,7.4v16.1c0,4.1,3.3,7.4,7.4,7.4l176.2-0.9l-28,46.1h158.6c4.1,0,7.4,3.3,7.4,7.4
				v30.4c0,4.1-3.3,7.4-7.4,7.4H730.1c-4.1,0-7.4-3.3-7.4-7.4v-7.5l-55.5-151.1l-41,44.8l-45.6,50.3l-71.2-87.1l-40.2,122.5v31.8
				c0,4.1-3.3,7.4-7.4,7.4H262.4c-4.1,0-7.4-3.3-7.4-7.4v-30.4C255,422.4,258.3,419.1,262.4,419.1"/>
		</g>
		<g>
			<path class="st6" d="M1733.5,104.8h95.6l119.5,359.6l120.6-359.6h95.6l86.5,515.6h-94.9l-55.3-325.6l-109.5,325.6h-86.5
				l-108.6-325.6l-56.6,325.6h-95.7L1733.5,104.8L1733.5,104.8z"/>
			<path class="st6" d="M2693,457.4h-307.4c4.4,27.1,16.3,48.7,35.6,64.7c19.3,16,43.9,24,73.8,24c35.8,0,66.5-12.5,92.2-37.5
				l80.6,37.8c-20.1,28.5-44.2,49.6-72.2,63.3c-28,13.7-61.3,20.5-99.9,20.5c-59.8,0-108.5-18.9-146.2-56.6
				c-37.6-37.7-56.4-85-56.4-141.8s18.8-106.5,56.3-144.9c37.5-38.4,84.5-57.7,141.1-57.7c60.1,0,108.9,19.2,146.5,57.7
				s56.4,89.2,56.4,152.3L2693,457.4L2693,457.4z M2597.4,382c-6.3-21.3-18.8-38.6-37.4-51.9c-18.6-13.3-40.2-20-64.8-20
				c-26.7,0-50.1,7.5-70.2,22.4c-12.6,9.4-24.3,25.8-35.1,49.4H2597.4z"/>
			<path class="st6" d="M2748,239h82v48c8.9-18.9,20.7-33.3,35.4-43.1s30.8-14.7,48.4-14.7c12.4,0,25.4,3.3,38.9,9.8l-29.8,82.4
				c-11.2-5.6-20.4-8.4-27.7-8.4c-14.7,0-27.2,9.1-37.3,27.3c-10.2,18.2-15.2,54-15.2,107.2l0.4,18.6v154.2h-95V239z"/>
			<path class="st6" d="M3036.9,82c16.8,0,31.2,6.1,43.2,18.2s18,26.9,18,44.2s-5.9,31.6-17.8,43.6c-11.9,12-26.1,18.1-42.6,18.1
				s-31.5-6.1-43.5-18.4c-12-12.3-18-27.2-18-44.7s5.9-31.2,17.8-43.1C3005.8,87.9,3020.1,82,3036.9,82L3036.9,82z M2989.1,239h95.7
				v381.3h-95.7V239L2989.1,239z"/>
			<path class="st6" d="M3174.1,385.9h178.1v89h-178.1V385.9z"/>
			<path class="st6" d="M3387.9,104.8h285v96.7h-93.9v418.8h-99.5V201.5h-91.5L3387.9,104.8L3387.9,104.8z"/>
			<path class="st6" d="M3868.4,229.2c36,0,69.8,9,101.5,27c31.7,18,56.4,42.4,74.1,73.2c17.8,30.8,26.6,64.1,26.6,99.9
				s-8.9,69.6-26.8,100.9c-17.9,31.3-42.2,55.8-73.1,73.4s-64.8,26.5-102,26.5c-54.7,0-101.4-19.5-140-58.4s-58-86.2-58-141.8
				c0-59.6,21.9-109.2,65.5-149C3774.5,246.5,3818.6,229.2,3868.4,229.2L3868.4,229.2z M3870,319.3c-29.7,0-54.5,10.3-74.3,31
				s-29.7,47.1-29.7,79.4s9.8,60.1,29.3,80.6c19.5,20.6,44.3,30.8,74.3,30.8s54.9-10.4,74.8-31.2c19.9-20.8,29.8-47.5,29.8-80.3
				s-9.8-59.3-29.3-79.7C3925.4,329.5,3900.4,319.3,3870,319.3L3870,319.3z"/>
			<path class="st6" d="M4314.7,229.2c36,0,69.8,9,101.5,27c31.7,18,56.4,42.4,74.1,73.2s26.6,64.1,26.6,99.9s-8.9,69.6-26.8,100.9
				c-17.9,31.3-42.2,55.8-73.1,73.4s-64.8,26.5-102,26.5c-54.7,0-101.4-19.5-140-58.4c-38.7-38.9-58-86.2-58-141.8
				c0-59.6,21.9-109.2,65.5-149C4220.8,246.5,4264.9,229.2,4314.7,229.2L4314.7,229.2z M4316.2,319.3c-29.7,0-54.5,10.3-74.3,31
				s-29.7,47.1-29.7,79.4s9.8,60.1,29.3,80.6c19.5,20.6,44.3,30.8,74.3,30.8s54.9-10.4,74.8-31.2c19.9-20.8,29.8-47.5,29.8-80.3
				s-9.8-59.3-29.3-79.7C4371.6,329.5,4346.7,319.3,4316.2,319.3L4316.2,319.3z"/>
			<path class="st6" d="M4579.9,91.8h95.7v528.6h-95.7V91.8z"/>
			<path class="st6" d="M4993,292.3l-59.2,59.2c-24.1-23.8-45.9-35.8-65.5-35.8c-10.8,0-19.2,2.3-25.2,6.8c-6.1,4.6-9.1,10.2-9.1,17
				c0,5.1,1.9,9.9,5.8,14.2c3.9,4.3,13.4,10.2,28.6,17.7l35,17.5c36.9,18.2,62.3,36.8,76.1,55.7c13.8,18.9,20.7,41.1,20.7,66.6
				c0,33.9-12.4,62.2-37.3,84.8c-24.9,22.7-58.2,34-100.1,34c-55.6,0-100-21.7-133.2-65.2l58.9-64.1c11.2,13.1,24.4,23.7,39.4,31.7
				c15.1,8.1,28.5,12.1,40.1,12.1c12.6,0,22.8-3,30.5-9.1c7.7-6.1,11.6-13.1,11.6-21c0-14.7-13.9-29.1-41.7-43.1l-32.2-16.1
				c-61.7-31.1-92.5-70-92.5-116.7c0-30.1,11.6-55.9,34.9-77.3s53-32.1,89.2-32.1c24.8,0,48.1,5.4,69.9,16.3
				C4959.3,256.4,4977.8,272,4993,292.3L4993,292.3z"/>
		</g>
	</g>
</g>
</svg>
